# xmcd
#
# Track frame offsets:
#	150
#	14579
#	28561
#	49749
#	68760
#	85936
#	100976
#	121182
#	143214
#	159217
#	182447
#	205378
#	220577
#	238992
#	259153
#	274618
#
# Disc length: 3917
#
# Revision: 2
# Processed by: cddbd v1.5.1PL0 Copyright (c) Steve Scherf et al.
# Submitted via: FreeRIP 2.30 
# Normalized: r0:DSETVAR1,TDELIM( - ),TSWAP
#
DISCID=dc0f4b10
DTITLE=Various Artist - The Magnificent Harmony Collection
DYEAR=2002
DGENRE=Soul
TTITLE0=The Spinners - I'll Be Around
TTITLE1=The Four Tops - Ain't No Woman (Like the One I got)
TTITLE2=The Manhattans - Shining Star
TTITLE3=The Spinners - Could It Be I'm Falling in Love
TTITLE4=The Temptations - Just My Imagination (Running Away with Me)
TTITLE5=The Isley Brothers - That Lady (Part One)
TTITLE6=Earth, Wind and Fire - After the Love Has Gone
TTITLE7=Bloodstone - Natural High
TTITLE8=The Dramatics - Watcha See Is Watcha Get
TTITLE9=The Chi-Lites - Have You Seen Her
TTITLE10=The Whispers - Lady
TTITLE11=The Delfonics - Didn't I (Blow Your Mind This Time)
TTITLE12=The Dells - On, What a Night
TTITLE13=Brighter Side of Darkness - Love Jones
TTITLE14=The O'Jays - Use Ta Be My Girl
TTITLE15=Ray, Goodman And Brown - Special Lady
EXTD=
EXTT0=
EXTT1=
EXTT2=
EXTT3=
EXTT4=
EXTT5=
EXTT6=
EXTT7=
EXTT8=
EXTT9=
EXTT10=
EXTT11=
EXTT12=
EXTT13=
EXTT14=
EXTT15=
PLAYORDER=
